<svg width="47" height="42" viewBox="0 0 47 42" fill="none" xmlns="http://www.w3.org/2000/svg">
<path d="M8.9763 0.883274C8.14798 0.896363 7.4871 1.57846 7.50019 2.40679C7.51328 3.23511 8.19537 3.89599 9.0237 3.8829L8.9763 0.883274ZM9.0237 3.8829L33.2681 3.49981L33.2207 0.500187L8.9763 0.883274L9.0237 3.8829Z" fill="white"/>
<path d="M37.6152 39.4235C37.2968 40.1883 37.6587 41.0664 38.4235 41.3848C39.1883 41.7032 40.0664 41.3413 40.3848 40.5765L37.6152 39.4235ZM40.3848 40.5765L46.6292 25.5765L43.8596 24.4235L37.6152 39.4235L40.3848 40.5765Z" fill="white"/>
<path d="M1.2081 34.7261C0.504528 35.1634 0.288717 36.0883 0.726072 36.7919C1.16343 37.4955 2.08833 37.7113 2.7919 37.2739L1.2081 34.7261ZM2.7919 37.2739L39.7919 14.2739L38.2081 11.7261L1.2081 34.7261L2.7919 37.2739Z" fill="white"/>
</svg>
