<svg width="275" height="39" viewBox="0 0 275 39" fill="none" xmlns="http://www.w3.org/2000/svg">
<path d="M1.1098 12.8057C0.54848 12.8759 0.972053 13.138 1.31288 13.138C4.73569 13.138 8.03547 12.1628 11.3744 11.495C32.3785 7.29414 53.9687 5.09044 75.2885 3.31648C110.838 0.358525 146.629 0.179755 182.218 2.54109C210.764 4.43512 239.465 6.82926 267.787 10.9596C268.992 11.1352 277.539 12.3368 271.609 12.0673C262.34 11.646 253.063 10.4177 243.806 9.74111C211.304 7.36557 178.788 5.27101 146.255 3.37186C117.652 1.70215 88.795 1.22288 60.4084 5.75341C58.8244 6.00622 44.4468 7.8606 45.233 11.1442C46.1395 14.9303 58.4846 14.0206 60.7777 14.0611C72.3321 14.2654 83.9076 13.0461 95.4116 12.1227C111.559 10.8265 127.677 9.24504 143.873 8.67034C172.786 7.6444 201.787 8.2351 230.403 12.8796C233.272 13.3453 236.132 13.8841 238.987 14.4304C240.553 14.7298 242.776 14.8575 244.157 15.7781C244.615 16.0837 243.194 16.4262 242.643 16.4427C239.711 16.5302 236.776 16.3365 233.855 16.1104C223.367 15.2984 212.974 13.6761 202.526 12.4919C187.536 10.793 172.532 9.59143 157.443 9.35342C142.875 9.12365 128.446 10.3387 113.984 11.9934C100.442 13.5429 86.8774 15.5513 73.5531 18.455C65.0008 20.3187 56.1756 22.3485 48.0392 25.6365C45.2493 26.764 36.2749 30.3488 37.8668 34.8858C39.3823 39.2048 47.2155 38.0738 50.4761 37.8396C63.6386 36.8945 76.802 33.5715 89.6516 30.7504C107.899 26.7442 125.839 22.3241 144.519 20.7442C164.785 19.0302 185.237 20.8835 205.48 22.1104" stroke="white" stroke-linecap="round"/>
</svg>
