<svg width="84" height="97" viewBox="0 0 84 97" fill="none" xmlns="http://www.w3.org/2000/svg">
<path d="M21.5326 47.1363C19.2048 45.6731 16.5604 44.6216 13.5659 44.0632C17.5805 43.2867 22.0123 42.2503 26.2297 40.156C31.0743 37.7501 35.6124 33.9634 39.0154 27.6577C41.3472 23.3368 43.1247 17.8731 44.1298 10.9234C44.9967 15.0477 45.8242 18.7876 46.7183 22.1806C48.2971 28.1724 50.1125 33.204 52.8031 37.5077C57.397 44.8557 64.3901 49.8431 76.4037 54.1294C69.6793 55.3862 61.8196 58.4606 54.7077 63.3924C47.256 68.5597 40.5324 75.832 36.7846 85.3145C36.4079 77.8746 35.3726 69.1966 32.527 61.7166C30.2716 55.7883 26.8263 50.4637 21.5326 47.1363Z" stroke="white" stroke-width="3"/>
</svg>
